<svg id="Layer_5" enable-background="new 0 0 64 64" height="512" viewBox="0 0 64 64" width="512" xmlns="http://www.w3.org/2000/svg"><g><g><g><path d="m55 56v2c0 2.21-1.79 4-4 4h-40c2.21 0 4-1.79 4-4v-2h32z" fill="#f0d0b4"/></g><g><path d="m12 14h-4c-.34 0-.67-.03-.99-.09l-.01.09v26 18c0 1.1.45 2.1 1.17 2.83.73.72 1.73 1.17 2.83 1.17 2.21 0 4-1.79 4-4v-2h32v-42z" fill="#e6e9ed"/></g><g><path d="m12 10v4h-4c-.34 0-.67-.03-.99-.09-1.26-.2-2.39-.8-3.25-1.67-1.09-1.08-1.76-2.58-1.76-4.24 0-3.31 2.69-6 6-6h4v4z" fill="#aab2bd"/></g><g><path d="m61.15 6.47c.53.33.85.91.85 1.53s-.32 1.2-.85 1.53l-7.15 4.47-2-4 2-2-2-2 2-4z" fill="#aab2bd"/></g><g><path d="m54 2-2 4h-40v-4z" fill="#ff826e"/></g><g><path d="m52 10 2 4h-7-35v-4z" fill="#ff826e"/></g><g><path d="m54 8-2 2h-40v-4h40z" fill="#b4dd7f"/></g><g><path d="m61 42v8h-14-2v-4-4h2z" fill="#f0d0b4"/></g><g><path d="m61 28v8h-14-2v-4-4h2z" fill="#f0d0b4"/></g><g><path d="m31 44h4v1c0 1.38-.56 2.63-1.46 3.54-.91.9-2.16 1.46-3.54 1.46-2.76 0-5-2.24-5-5v-1h4z" fill="#aab2bd"/></g><g><path d="m28.73 20.07c-4.84.54-8.85 4.36-9.59 9.18-.54 3.47.55 6.68 2.61 9.02.4.45.83.86 1.29 1.24 1.2.98 1.96 2.41 1.96 3.97v.52h4 2 4v-.53c0-1.53.72-2.96 1.92-3.93.79-.64 1.49-1.38 2.08-2.22 1.08-1.53 1.78-3.35 1.95-5.32.03-.33.05-.66.05-1 0-6.49-5.62-11.67-12.27-10.93z" fill="#ffeaa7"/></g><g><path d="m35.41 29.59c.37.36.59.86.59 1.41 0 1.1-.9 2-2 2h-2.26l.14-2.13c.07-1.05.94-1.87 1.99-1.87h.13c.55 0 1.05.22 1.41.59z" fill="#fcd770"/></g><g><path d="m28.12 30.87.14 2.13h-2.26c-.55 0-1.05-.22-1.41-.59-.37-.36-.59-.86-.59-1.41 0-1.1.9-2 2-2h.13c1.05 0 1.92.82 1.99 1.87z" fill="#fcd770"/></g></g><g><path d="m54.287 15 7.396-4.622c.825-.517 1.317-1.405 1.317-2.378s-.492-1.861-1.317-2.378l-7.396-4.622h-46.287c-3.859 0-7 3.141-7 7 0 3.164 2.113 5.842 5 6.705v43.295c0 2.757 2.243 5 5 5h40c2.757 0 5-2.243 5-5v-3h-8v-4h14v-10h-14v-4h14v-10h-14v-12zm-2.701-6h-38.586v-2h38.586l1 1zm-.204-4h-38.382v-2h39.382zm-38.382 6h38.382l1 2h-39.382zm48-3c0 .279-.142.534-.378.683l-6.219 3.886-1.186-2.372 2.197-2.197-2.197-2.197 1.186-2.372 6.219 3.886c.236.149.378.404.378.683zm-58 0c0-2.757 2.243-5 5-5h3v10h-3c-2.757 0-5-2.243-5-5zm51 50c0 1.654-1.346 3-3 3h-36.002c.629-.836 1.002-1.875 1.002-3v-1h38zm6-9h-14v-6h14zm-14-8h-2v4h-4v-7.395c.921-1.387 1.536-2.951 1.815-4.605h2.185v4h2zm-12 4c0 2.206-1.794 4-4 4s-4-1.794-4-4zm-4.665-11h1.33l-.601 9h-.129zm4.692 9h-1.958l.6-9h1.331c1.654 0 3-1.346 3-3s-1.346-3-3-3h-.129c-1.574 0-2.89 1.23-2.993 2.801l-.08 1.199h-1.596l-.08-1.198c-.103-1.572-1.419-2.802-2.993-2.802h-.129c-1.654 0-3 1.346-3 3s1.346 3 3 3h1.331l.6 9h-1.959c-.135-1.63-.952-3.165-2.301-4.269-2.772-2.268-4.099-5.756-3.547-9.329.67-4.342 4.337-7.848 8.721-8.337.391-.044.782-.065 1.169-.065 2.466 0 4.793.883 6.65 2.544 2.12 1.896 3.336 4.614 3.336 7.456 0 3.026-1.354 5.857-3.714 7.767-1.326 1.073-2.128 2.596-2.259 4.233zm-1.224-11 .071-1.067c.034-.523.473-.933.997-.933h.129c.552 0 1 .448 1 1s-.448 1-1 1zm-5.606 0h-1.197c-.552 0-1-.448-1-1s.448-1 1-1h.129c.524 0 .963.41.997.934zm32.803 3h-14v-6h14zm-14-8h-2v4h-2c0-3.41-1.459-6.671-4.003-8.946-2.541-2.273-5.958-3.354-9.375-2.977-5.265.588-9.67 4.802-10.475 10.021-.661 4.28.931 8.461 4.258 11.183 1.014.827 1.595 1.992 1.595 3.195v1.524c0 3.309 2.691 6 6 6s6-2.691 6-6v-1.53c0-1.207.563-2.354 1.544-3.148.161-.13.303-.276.456-.413v7.091h6v4h2v4h-32v3c0 1.654-1.346 3-3 3s-3-1.346-3-3v-43h38z"/><path d="m48 45h2v2h-2z"/><path d="m56 45h2v2h-2z"/><path d="m52 45h2v2h-2z"/><path d="m56 31h2v2h-2z"/><path d="m52 31h2v2h-2z"/><path d="m48 31h2v2h-2z"/><path d="m10 51h2v2h-2z"/><path d="m14 51h2v2h-2z"/><path d="m18 51h2v2h-2z"/><path d="m10 47h10v2h-10z"/><path d="m10 43h10v2h-10z"/><path d="m10 39h10v2h-10z"/></g></g></svg>