<svg id="Layer_5" enable-background="new 0 0 64 64" height="512" viewBox="0 0 64 64" width="512" xmlns="http://www.w3.org/2000/svg"><g><g><g><path d="m2 60v-32h44v4c-.55 0-1.05.22-1.41.59-.37.36-.59.86-.59 1.41 0 1.1.9 2 2 2v7 2c0 1.1.9 2 2 2h3c-1.38 0-2.63.56-3.54 1.46-.9.91-1.46 2.16-1.46 3.54v.4c0 1.04.33 2.06.93 2.9l4.07 5.7v1h-47c-1.1 0-2-.9-2-2z" fill="#e6e9ed"/></g><g><path d="m26 52h14v6h-14z" fill="#69d6f4"/></g><g><path d="m6 32h16v16h-16z" fill="#ff826e"/></g><g><path d="m46 28h-44v-10c0-1.1.9-2 2-2h36.41c.62 2.19 1.91 4.11 3.63 5.51 1.2.98 1.96 2.4 1.96 3.96v.53z" fill="#b4dd7f"/></g><g><path d="m22 20h4v4h-4z" fill="#e6e9ed"/></g><g><path d="m14 20h4v4h-4z" fill="#e6e9ed"/></g><g><path d="m6 20h4v4h-4z" fill="#e6e9ed"/></g><g><path d="m56 52v.4c0 1.04-.33 2.06-.93 2.9l-4.07 5.7-4.07-5.7c-.6-.84-.93-1.86-.93-2.9v-.4c0-1.38.56-2.63 1.46-3.54.91-.9 2.16-1.46 3.54-1.46 2.76 0 5 2.24 5 5z" fill="#dfb28b"/></g><g><path d="m56 43v2c0 1.1-.9 2-2 2h-3-3c-1.1 0-2-.9-2-2v-2z" fill="#ff826e"/></g><g><path d="m46 36h10v7h-10z" fill="#aab2bd"/></g><g><path d="m52 26h4v6h-10s0-1.75 0-4c0-.64 0-1.31 0-2h4z" fill="#aab2bd"/></g><g><path d="m56 32c1.1 0 2 .9 2 2 0 .55-.22 1.05-.59 1.41-.36.37-.86.59-1.41.59h-10c-1.1 0-2-.9-2-2 0-.55.22-1.05.59-1.41.36-.37.86-.59 1.41-.59z" fill="#969faa"/></g><g><path d="m49.73 2.07c-4.84.54-8.85 4.36-9.59 9.18-.26 1.66-.14 3.27.27 4.75.62 2.19 1.91 4.11 3.63 5.51 1.2.98 1.96 2.4 1.96 3.96v.53h4 2 4v-.53c0-1.53.72-2.96 1.92-3.93 2.49-2.01 4.08-5.09 4.08-8.54 0-6.49-5.62-11.67-12.27-10.93z" fill="#ffeaa7"/></g><g><path d="m56.41 11.59c.37.36.59.86.59 1.41 0 1.1-.9 2-2 2h-2.26l.14-2.13c.07-1.05.94-1.87 1.99-1.87h.13c.55 0 1.05.22 1.41.59z" fill="#fcd770"/></g><g><path d="m49.12 12.87.14 2.13h-2.26c-.55 0-1.05-.22-1.41-.59-.37-.36-.59-.86-.59-1.41 0-1.1.9-2 2-2h.13c1.05 0 1.92.82 1.99 1.87z" fill="#fcd770"/></g></g><g><path d="m58.545 22.32c2.831-2.29 4.455-5.687 4.455-9.32 0-3.41-1.459-6.671-4.002-8.946-2.542-2.273-5.962-3.362-9.376-2.977-5.265.588-9.67 4.802-10.475 10.02-.205 1.326-.169 2.636.043 3.903h-35.19c-1.654 0-3 1.346-3 3v42c0 1.654 1.346 3 3 3h48v-1.679l3.882-5.435c.731-1.023 1.118-2.229 1.118-3.489v-.397c0-1.666-.684-3.175-1.784-4.263 1.049-.468 1.784-1.516 1.784-2.737v-8.184c1.161-.414 2-1.514 2-2.816s-.839-2.402-2-2.816v-5.714c0-1.207.563-2.355 1.545-3.15zm-17.421-10.918c.67-4.341 4.337-7.847 8.721-8.337 2.888-.321 5.671.558 7.819 2.48 2.12 1.896 3.336 4.613 3.336 7.455 0 3.026-1.354 5.857-3.713 7.766-1.327 1.073-2.129 2.597-2.26 4.234h-1.958l.6-9h1.331c1.654 0 3-1.346 3-3s-1.346-3-3-3h-.129c-1.574 0-2.89 1.23-2.993 2.801l-.08 1.199h-1.596l-.08-1.199c-.103-1.571-1.419-2.801-2.993-2.801h-.129c-1.654 0-3 1.346-3 3s1.346 3 3 3h1.331l.6 9h-1.958c-.134-1.628-.95-3.163-2.3-4.267-2.775-2.268-4.101-5.756-3.549-9.331zm5.876 19.598v-4h8v4zm3.335-15h1.33l-.601 9h-.129zm3.468-2 .071-1.067c.034-.523.473-.933.997-.933h.129c.552 0 1 .449 1 1s-.448 1-1 1zm-5.606 0h-1.197c-.552 0-1-.449-1-1s.448-1 1-1h.129c.524 0 .963.41.997.934zm-44.197 3h35.697c.717 2.029 1.969 3.858 3.71 5.282 1.012.827 1.593 1.989 1.593 3.186v1.532h-42v-9c0-.551.448-1 1-1zm-1 43v-31h42v2.184c-1.161.414-2 1.514-2 2.816s.839 2.402 2 2.816v8.184c0 1.221.735 2.269 1.784 2.737-1.1 1.088-1.784 2.597-1.784 4.263v.397c0 1.259.387 2.465 1.118 3.487l3.653 5.116h-45.771c-.552 0-1-.449-1-1zm44-23h8v5h-8zm8 15.397c0 .839-.258 1.643-.745 2.325l-3.255 4.557-3.255-4.558c-.487-.68-.745-1.484-.745-2.324v-.397c0-2.206 1.794-4 4-4s4 1.794 4 4zm-7-6.397c-.552 0-1-.449-1-1v-1h8v1c0 .551-.448 1-1 1zm8-11h-10c-.552 0-1-.449-1-1s.448-1 1-1h10c.552 0 1 .449 1 1s-.448 1-1 1z"/><path d="m11 19h-6v6h6zm-2 4h-2v-2h2z"/><path d="m19 19h-6v6h6zm-2 4h-2v-2h2z"/><path d="m27 19h-6v6h6zm-2 4h-2v-2h2z"/><path d="m5 49h18v-18h-18zm2-16h14v14h-14z"/><path d="m25 31h2v2h-2z"/><path d="m29 31h12v2h-12z"/><path d="m25 35h16v2h-16z"/><path d="m25 39h16v2h-16z"/><path d="m39 43h2v2h-2z"/><path d="m25 43h12v2h-12z"/><path d="m25 47h16v2h-16z"/><path d="m25 59h16v-8h-16zm2-6h12v4h-12z"/><path d="m5 51h2v2h-2z"/><path d="m9 51h14v2h-14z"/><path d="m5 55h18v2h-18z"/></g></g></svg>